# xmcd
#
# Track frame offsets: 
#        150
#        32682
#        61333
#        97836
#        127693
#        157987
#        185993
#        228395
#        264032
#        296152
#        330036
#
# Disc length: 4786 seconds
#
# Revision: 0
# Processed by: cddbd v1.5.2PL0 Copyright (c) Steve Scherf et al.
# Submitted via: ExactAudioCopy v1.3
#
DISCID=8512b00b
DTITLE=Various Artist - Akella Presents - vol. 175 - Long Time of Blu
DTITLE=es-Rock  CD2
DYEAR=2019
DGENRE=Blues
TTITLE0=Tim Brooks and The Alien Sharecroppers - Shakin' This Ol' Tree
TTITLE1=The D.B. Walker Band - I Wanna Boogie
TTITLE2=Chris Duarte Group - City Life Blues
TTITLE3=Corey Stevens - Rumors In The Ether
TTITLE4=Joost De Lange Band - The River
TTITLE5=In Layman Terms - Ain't Gonna Fake It No More
TTITLE6=Jessie Lee and The Alchemists - Still In The Desert
TTITLE7=Blues Cousins - The Dream
TTITLE8=Gwyn Ashton - Angel
TTITLE9=Juniper Inc. - 99 Blues
TTITLE10=Peter Parcek 3 - Lord, Help The Poor And Needy
EXTD=
EXTT0=
EXTT1=
EXTT2=
EXTT3=
EXTT4=
EXTT5=
EXTT6=
EXTT7=
EXTT8=
EXTT9=
EXTT10=
PLAYORDER=
